<!-- https://openclipart.org/detail/215798/carrot-lineart -->
<svg xmlns="http://www.w3.org/2000/svg" xmlns:xlink="http://www.w3.org/1999/xlink" width="100px" height="100px">
  <defs>
    <pattern xlink:href="#a" id="b" patternTransform="matrix(.8076 0 0 1.0854 .758 946.513)"/>
    <pattern id="a" patternTransform="scale(10)" height="10" width="10" patternUnits="userSpaceOnUse">
      <circle r=".45" cy=".81" cx="2.567"/>
      <circle r=".45" cy="2.33" cx="3.048"/>
      <circle r=".45" cy="2.415" cx="4.418"/>
      <circle r=".45" cy="3.029" cx="1.844"/>
      <circle r=".45" cy="1.363" cx="6.08"/>
      <circle r=".45" cy="4.413" cx="5.819"/>
      <circle r=".45" cy="4.048" cx="4.305"/>
      <circle r=".45" cy="3.045" cx="5.541"/>
      <circle r=".45" cy="5.527" cx="4.785"/>
      <circle r=".45" cy="5.184" cx="2.667"/>
      <circle r=".45" cy="1.448" cx="7.965"/>
      <circle r=".45" cy="5.049" cx="7.047"/>
      <circle r=".45" cy=".895" cx="4.34"/>
      <circle r=".45" cy=".34" cx="7.125"/>
      <circle r=".45" cy="1.049" cx="9.553"/>
      <circle r=".45" cy="2.689" cx="7.006"/>
      <circle r=".45" cy="2.689" cx="8.909"/>
      <circle r=".45" cy="4.407" cx="9.315"/>
      <circle r=".45" cy="3.87" cx="7.82"/>
      <circle r=".45" cy="5.948" cx="8.27"/>
      <circle r=".45" cy="7.428" cx="7.973"/>
      <circle r=".45" cy="8.072" cx="9.342"/>
      <circle r=".45" cy="9.315" cx="8.206"/>
      <circle r=".45" cy="9.475" cx="9.682"/>
      <circle r=".45" cy="6.186" cx="9.688"/>
      <circle r=".45" cy="6.296" cx="3.379"/>
      <circle r=".45" cy="8.204" cx="2.871"/>
      <circle r=".45" cy="8.719" cx="4.59"/>
      <circle r=".45" cy="9.671" cx="3.181"/>
      <circle r=".45" cy="7.315" cx="5.734"/>
      <circle r=".45" cy="6.513" cx="6.707"/>
      <circle r=".45" cy="9.67" cx="5.73"/>
      <circle r=".45" cy="8.373" cx="6.535"/>
      <circle r=".45" cy="7.154" cx="4.37"/>
      <circle r=".45" cy="7.25" cx=".622"/>
      <circle r=".45" cy="5.679" cx=".831"/>
      <circle r=".45" cy="8.519" cx="1.257"/>
      <circle r=".45" cy="6.877" cx="1.989"/>
      <circle r=".45" cy="3.181" cx=".374"/>
      <circle r=".45" cy="1.664" cx="1.166"/>
      <circle r=".45" cy=".093" cx="1.151"/>
      <circle r=".45" cy="10.093" cx="1.151"/>
      <circle r=".45" cy="4.451" cx="1.302"/>
      <circle r=".45" cy="3.763" cx="3.047"/>
    </pattern>
  </defs>
  <g fill-rule="evenodd">
    <path d="M57.9714 32.1084l6.091-9.624-1.0964-3.7763 1.9492-1.096c-.1192-.758.0468-1.167-.1858-2.493l2.8658.179c-.9387-1.295-.792-2.47-.731-3.654 1.3725-1.187 2.9096-1.384 4.3857-1.949-.762-1.879-.46-3.582-.61-5.36.074-.526.142-1.317 2.193-1.124l2.215.896 2.78-3.183c.446-.192 1.238-.264 1.684.66.419.87.61 1.31 1.068 2.05.886.963 1.983.866 3.095.702l1.097-1.097 1.462 3.045c1.277 1.134 2.628 1.468 4.02 1.34.312 1.003-.285 1.096-.609 1.462l-2.193 2.071c.225.937.911 1.597 1.706 2.193 1.015-.765 1.862-1.725 2.192-3.289.988-.702 1.799-.697 2.559-.487.059 1.266.323 3.041.609 4.873.856.586 1.685 1.034 2.314.488 1.081.769.591 1.681.487 2.558l-2.071 1.096c-.189.535-.149 1.185.121 1.949l1.705 1.097c.533.8756.234 1.404-.609 1.7057l-2.924.3653c-.987 1.137-.289 2.274-.244 3.411.231 2.3864-.828 1.307-1.534 1.612-1.54-.509-2.478-.1758-3.462.093-2.523 2.19-4.758 2.224-7.0657 2.802l.4872 2.802c-.4106.081-.258.409-6.213-1.95l-12.67 4.874-.853-1.0967c-.812.597-1.6244-.4036-2.4365-.853-.481-.3503-.821-.9283-.731-2.1924z" fill="#fff" stroke="teal" stroke-width=".3418"/>
    <path d="M57.9253 33.2466c-2.075-1.243-2.965-2.3903-7.1414-1.382-2.807.5956-8.194 3.2518-11.208 6.5785-1.783 2.031-2.125 4.061-3.168 6.091-4.803 3.527-4.687 6.645-5.848 9.868-4.047 2.07-3.682 4.36-4.751 6.579-2.455 1.9-2.686 4.911-3.655 7.553-3.184 2.952-3.302 4.372-4.02 6.091-3.02 1.779-5.286 3.874-5.239 6.944-3.651 2.153-5.886 4.305-7.431 6.457-2.53 3.706-3.685 9.767-3.168 10.233 1.593-1.46 2.867-3.716 4.142-5.969 1.126-2.82 4.922-3.65 6.457-6.943 5.626-1.562 11.517-4.11 18.273-9.867 4.548-3.571 9.267-6.461 13.522-11.207 3.41-1.518 6.618-3.891 9.38-8.161 2.987-.108 5.703-1.843 8.04-5.847.916-3.63 3.041-7.591.01-12.739l-2.388-1.817z" fill="#fff" stroke="#f60" stroke-width=".3418"/>
    <path d="M6.3135 1042.7658c2.8273-2.912 4.742-5.54 8.3337-7.955 7.017-1.7673 14.101-9.4244 20.4556-13.5108 6.3342-1.8 8.5954-5.9556 13.0057-10.733 5.0896-1.9795 7.1878-6.4317 10.1015-9.3438 10.1793-4.0647 8.5943-9.5776 6.9448-13.132-2.1273-.3275-2.5533-1.5377-3.0304-2.5253-1.376-1.347-.3827-2.694-.1263-4.041l2.778 3.156 2.652 2.399 1.263 7.955c-1.773 4.402-2.64 9.308-10.228 10.48-2.866 4.198-6.225 7.081-10.101 8.586-2.041 3.032-7.875 7.099-13.51 11.111-6.649 7.598-12.855 8.116-19.193 10.733-.384 2.396-3.124 3.615-5.429 5.051l-3.535 6.187-2.273 2.399c.363-2.452.564-5.011 1.894-6.819z" transform="translate(-2.33 -913.99) scale(.9648)" fill="url(#b)"/>
    <path style="line-height:normal;text-indent:0;text-align:start;text-decoration-line:none;text-decoration-style:solid;text-decoration-color:#000000;text-transform:none;block-progression:tb;isolation:auto;mix-blend-mode:normal" d="M51.7614 30.7722c-7.8782.37-13.8592 6.2192-15.9742 13.491-4.6965 2.4024-5.8548 7.187-6.0875 9.7917-2.2372 1.564-4.6105 4.103-4.7824 6.849-2.1484.405-2.1974 6.277-3.9665 7.982-2.3244 2.239-2.724 2.953-3.957 5.538-3.1837 1.577-4.6505 4.948-5.3535 7.096-2.5947 1.96-6.415 4.867-7.7633 8.08-1.097 2.612-2.814 6.844-2.208 9.942 1.2592-.412 1.325-.864 2.741-2.698 1.3407-1.737 1.833-3.614 3.284-5.252 1.6214-1.83 4.6856-2.569 5.6427-5.79 1.789-.002 13.9305-4.018 18.1257-9.742 2.405-.875 4.139-3.717 6.9344-5.129 2.338-1.182 4.9444-3.72 6.4276-5.654 2.22-.754 7.36-4.829 9.455-8.076.8565.062 3.359-.537 6.884-3.879 4.3078-4.082 5.1256-11.272 1.7826-16.418-.329-.507-.685-.988-1.064-1.441-.563.777-1.783.293-2.135-.047-.4318-.417.24-1.839-.236-2.192-1.794-1.329-3.8896-2.184-6.1568-2.45-.534-.063-1.069-.029-1.594-.004zm1.2328 1.8533c1.7003.055 3.3088.4904 4.6656 1.482.648.4737.5485 1.63 1.5732 2.2332.799 1.225 1.966 1.4313 2.3486 2.0677.8983 1.494 1.1884 3.521 1.3298 5.2124.4426 5.2937-3.575 9.5924-8.2293 11.5835.133-.8493.098-1.9152-.045-2.932-.178-1.2676-.738-1.9907-1.042-2.5834-.302-.591-1.482-1.903-2.911-2.834 1.325 2.116 2.082 2.665 2.827 4.737.408 1.133.277 2.909-.256 4.226-1.638 1.037-1.884 3.587-4.083 4.443.025-.715-.033-1.512-.143-2.244-.151-1.007-.414-1.752-.673-2.252-.429-.832-1.167-1.427-2.238-1.896.453.988.795 1.489 1.259 2.392.391.76.79 2.236.797 2.938.009.843-.274 1.721-.483 2.354-.806.541-1.379 1.187-2.187 1.706-.013-.706-.49-1.652-.832-2.38-.396-.843-.575-2.085-1.266-2.759-.437-.426-2.019-1.807-2.644-1.609 1.596 1.871 1.988 1.863 2.764 3.81.328.822.459 2.929-.02 4.19-.372.272-.921 1.099-1.268 1.394-3.4 2.831-6.888 5.119-10.379 7.818.121-.53.197-1.714.151-2.324-.133-1.76-1.32-3.365-2.165-4.368.103.978.618 1.833 1.007 4.978.079.639-.162 2.353-.524 2.878-2.579 1.462-3.874 4.272-6.97 5.231-3.6 2.098-7.944 3.947-10.926 4.973-.683 2.081-3.458 2.758-5.361 4.867-1.829 2.025-3.587 6.131-4.507 7.225.417-2.293 2.407-7.351 4.298-9.546 2.381-2.762 5.037-3.767 6.106-4.905 1.07-1.139 1.059-1.783 2.073-1.915.365-.048 1.293-.039 2.201.164-.205-.805-.734-.78-1.496-.95-.452-.101-1.166-.019-1.788.135 1.541-3.987 3.226-4.031 5.197-5.329-.433-1.377 1.204-3.408 3.138-5.551 2.074-2.298 2.2766-5.721 3.9197-7.624.422-.756 1.065-.761 1.6974-.62 1.8706.419 2.9677 1.203 3.763 1.905-.151-.925-.566-2.2-1.9172-2.776-.904-.385-1.6403-.367-2.5293-.286.203-.599.337-1.188.6084-1.739.661-1.34 1.895-2.237 3.837-3.284.004-.0223.011-.0435.015-.066.0076 0 .0136.004.021.004.471-1.4595.831-2.087 2.25-2.365 1.35-.2644 3.4816-.1955 4.7163-.8554-.591-.1744-1.994-.4015-3.414-.4277-.9497-.0173-1.8025.168-2.637.435.9466-2.353 2.4583-4.005 4.257-5.658.089-.229.1313-.88.2293-1.106.879-.559 2.193-.756 3.795-.4633 2.5385.464 5.5056 1.833 4.2565.111-.6744-.153-3.224-1.161-3.8572-1.439-1.0517-.463-2.217-.17-3.524.392C40.7672 37.79 46.5002 32.413 53 32.623z" white-space="normal" overflow="visible" color="#000" font-family="sans-serif" solid-color="#000000"/>
    <path style="line-height:normal;text-indent:0;text-align:start;text-decoration-line:none;text-decoration-style:solid;text-decoration-color:#000000;text-transform:none;block-progression:tb;isolation:auto;mix-blend-mode:normal" d="M78.4547.2028c-2.2697.1223-2.728 2.8415-4.1644 2.868-1.456-.5812-2.2556-1.0307-3.6424-.2582-1.38 1.43.319 5.053-.558 6.6422-1.264 1.0237-2.398.6728-3.62 1.6752-.705 1.1246.205 2.85.365 3.846-1.06-.6346-1.494-.7705-2.693-.6954-.567.5977.533 1.9638.258 2.915-.154.5312-1.113.9334-2.12 1.0006.433 2.5372 2.215 4.0555-.23 6.4726 0 0-3.085 4.4062-4.182 6.844-.124.2758-.438.4365-.309.8242.017.6034-.009.7322.714 1.325.484.397-.22 1.4507 1.007 2.3338.749 1.556 2.256.7935 2.559 1.1657.551.6775.864.8118 1.499.835.298-.044.41.1512.824-.1882L76.15 33.107c1.5803 1.142 5.4678 2.76 6.601 1.7203.4464-.4098-.4606-1.541-.7048-2.8096 3.1828.1333 5.3084-2.5616 8.2043-2.7643.7965-.0557 1.651.0766 2.6022.5088.7924-.1597 1.2157-.5108 1.4246-.9648.4285-.931-.0453-2.2964-.0866-3.3352-.0417-1.0425.3517-1.7558 2.5287-1.3737.8962-.4405 1.2767-1.159 1.2437-1.8542-.04-.8423-.69-1.645-1.758-1.8768.283-.8898.346-1.803.43-1.9973 3.532-.429.708-5.873-1.762-4.3622-.209-1.8454.876-5.4845-2.061-5.2083-1.65.1552-3.293 2.4532-3.674 3.7686-.454-.3334-.89-.6785-.878-1.0985.017-.5683.922-1.625 1.868-1.809.891-1.0845.96-1.8323.616-2.3554-.707-1.078-3.167-1.2045-3.8-1.3718-.402-1.3088-.86-2.1793-2.155-3.5105-.415.265-.757.617-1.066.995-.872.479-2.017.348-2.661-.356C80.134 2.04 79.718.217 78.455.203zm.262 1.4095c.31.0134.6027.557.9194 2.0388.549.589 1.849 1.309 2.968 1.299-.36.49-.716.876-1.147.988-.562.146-1.25-.172-2.24-1.323-6.158-2.223-1.029 8.3-6.201 7.598-3.707.445.799 6.987-3.216 3.888-2.287 1.637-.549 5.49-3.35 7.121-2.02 3.188-3.935 6.45-6.728 9.085-1.226.775-.459-.291-.31-.786 1.166-2.211 4.09-6.622 5.427-9.016-.052-1.266-.515-2.744-.588-3.448-.04-.389.282-.746 1.368-1.132-.253-1.006-.202-1.521.032-1.773.533-.571 1.702.206 2.688-.371-.527-2.675-.615-3.512-.426-4.008.388-1.019 2.642-.841 3.867-1.758.278-.988-.456-4.752-.376-5.491.098-.912.996-1.141 2.861.262 2.433 1.52 3.526-3.21 4.457-3.17zm5.8187 2.491c.7982 1.727.661 2.4128 1.7505 3.1073.66.4207.954.7133 2.743.7405.665 1.241-1.669 1.847-1.994 3.042-.139.509.546 1.789 1.614 2.416-.362 1.337-3.086.1-4.423.956-1.005.644-2.789 1.772-2.352 3.722-.886 1.949-3.797-1.087-1.56 2.13 1.09.733-1.379 3.821-2.663 4.027-.479.077-1.678-.634-1.838-1.187-.889-.868-1.868-.913-2.751-.757-1.497.264-2.343 1.143-3.318 2.359l-2.731 3.859-6.652 6.147c-2.131-1.321 2.186-3.574 2.644-4.788 2.244-2.651 3.936-5.511 6.146-8.185.281-1.51.029-3.543.643-4.068.485-.415 1.671.506 2.975.634.342-1.414-.664-3.266-.16-4.285.404-.818 2.107-.966 3.812-.899.207-1.629-.155-5.957 1.535-7.155 1.744 1.39 2.878 1.828 3.8043 1.519.9955-.332 1.752-1.525 2.77-3.329zm.471 4.6072c-.8074 1.2765-1.5136 1.7045-2.2894 2.4817-.9424.9297-2.3317 1.9504-3.8647 3.0318-2.153 1.5188-4.589 3.151-6.5198 4.9615-.8188.7678-1.591 1.74-1.9522 2.7492 1.358-.6437 1.8764-1.2616 2.6796-2.0125 1.839-1.7094 4.229-3.3414 6.384-4.8615 1.541-1.0875 2.962-2.121 3.994-3.1393 1.032-1.0184 1.744-2.0685 1.568-3.211zm8.05 1.5338c.2014-.0128.3565.0366.42.1376.5636.894-.4343 5.572 2.785 5.304 1.6808 1.901-2.9917.909-1.4244 4.123-.3215 2.322-2.981-.153-4.694.537-.9232.371-2.5894 1.106-2.5456 2.762-.0032 1.942-1.0408 1.775-1.843 1.27-.605-.381-.4917-1.023-1.366-1.076.2806 1.09.5553 1.572.488 2.231-.0826.81-.4427 1.556-1.2248 2.135-1.0923.808-2.555 1.273-2.8868 1.027-1.4197-3.34-5.1657-3.217-7.2358-1.236l-12.301 8.298c-.2276-.121-.3744-.277-.1725-.417l11.993-11.597c2.8064-.49 4.743 4.693 6.727-.249 1.468-.002 1.7185-.645 1.745-1.361.878-.568 1.9615-1.182 2.7115-1.707 2.294-1.607 4.7194-2.888 6.9663-3.673.6757-.236 1.7325-.797 2.3517-1.023-.7493-.806-1.8594-.207-2.772.171-2.6445.837-4.572 2.039-6.5705 3.571-.9073.893-1.8532 1.414-2.6757 2.268-.0333-.858-.1534-1.682 1.238-1.547 1.0537-2.725.6366-6.09 4.7635-4.956 1.476-.221 2.85-.774 2.7127-1.385-.023-.103-.212-.501-.2875-.598.3064-.172.6894-.454 1.1795-.895.2843-1.477 1.314-2.08 1.9183-2.118zm-1.843 11.029c.5188.0202 1.1232.217 1.8014.6557 1.3723.5795 2.1878.1875 2.6927-.5125.4496.3118 1.029.626 1.189.882.2123.339-1.0123.616-2.7548.5388-1.6078.001-1.981.7938-1.9465 1.7712.0437 1.2384.743 2.7734.4126 3.373-.211.3826-.8412.3838-2.327-.3166-1.3987-.217-2.606.726-3.6614 1.256-2.0008 1.005-3.4877 2.497-5.9552 2.513.071 1.222.6483 2.087.257 2.218-1.2044.405-5.0677-3.612-7.0134-1.502-3.5642 1.369-7.5456 3.604-10.6193 4.28-.1886.343-.7647-.004-.6946-.394 3.944-3.614 8.144-5.209 12.246-7.602.44-.817 1.139-1.109 2.086-1.307 2.097-.325 2.515 2.535 3.854 2.901.564.154 1.647.29 2.516-1.13 2.448.846 3.214-2.007 2.723-3.189 2.779.848 2.574-1.784 3.369-3.356.333-.658.959-1.117 1.824-1.084z" white-space="normal" overflow="visible" color="#000" font-family="sans-serif" solid-color="#000000"/>
  </g>
</svg>
