<!-- https://openclipart.org/detail/192482/deer -->
<svg xmlns="http://www.w3.org/2000/svg" width="100px" height="100px">
<path style="fill:#000000" d="M 10.598177,98.684095 C 10.370473,98.45639 10.179204,97.79658 10.173204,97.217834 10.157335,95.688796 9.3916061,94.822445 8.2988041,95.096654 7.5541547,95.283555 7.3540817,95.166611 7.0421989,94.36223 6.5339826,93.0515 6.8896424,90.432831 7.8668958,88.2901 8.3145271,87.308546 9.1947601,84.642454 9.8230009,82.365404 11.877847,74.917259 12.613498,72.605536 13.040717,72.252489 c 0.231534,-0.191301 0.991214,-0.454389 1.688227,-0.584631 0.758941,-0.141807 1.981582,-0.846572 3.048121,-1.756816 0.979426,-0.836006 2.095252,-1.740237 2.479506,-2.009474 0.915732,-0.641401 1.243214,-2.34579 0.8892,-4.628265 -0.331884,-2.139716 0.127453,-5.172613 1.141704,-7.538754 l 0.683553,-1.59461 -1.555723,1.43396 c -2.144084,1.976454 -2.887124,1.832341 -2.454021,-0.475771 0.403339,-2.149967 1.703905,-3.183199 7.591213,-6.030824 5.953187,-2.879436 8.613742,-3.651869 11.33534,-3.290826 0.941136,0.124842 2.869644,0.04014 4.285469,-0.188287 2.02349,-0.326427 3.399969,-0.323268 6.433011,0.01483 3.767193,0.419878 3.944326,0.408087 7.472126,-0.497716 3.11521,-0.799884 4.065219,-0.901724 6.890994,-0.738704 l 3.27756,0.189093 0.917078,-1.32406 c 0.808024,-1.166625 0.947075,-1.790287 1.169212,-5.245125 0.138688,-2.156601 0.450302,-4.48566 0.692491,-5.175483 l 0.440324,-1.254401 -2.045951,-0.147989 c -2.896321,-0.209515 -3.239278,-0.701558 -1.516377,-2.17575 0.757959,-0.648542 1.921585,-1.275687 2.585626,-1.39363 1.93365,-0.343408 3.450018,-0.875007 3.450018,-1.209485 0,-0.355587 -1.632296,-0.08703 -3.579655,0.588974 -1.958216,0.679781 -5.645515,0.56752 -9.274922,-0.282414 -3.486802,-0.816543 -3.778347,-0.963396 -3.837738,-1.933642 -0.02208,-0.360954 -1.172734,-1.633054 -2.556837,-2.826976 -1.384184,-1.193866 -2.817934,-2.761404 -3.186359,-3.483337 -0.368328,-0.721956 -0.840012,-1.417929 -1.04823,-1.546672 -0.579779,-0.35831 -2.736226,-3.852366 -2.736226,-4.433498 0,-1.095757 0.82428,-0.98078 1.814103,0.253021 0.556905,0.694159 1.152803,1.175426 1.324261,1.069475 0.476616,-0.294576 0.371488,-2.310659 -0.205784,-3.94688 -0.28463,-0.8067104 -0.517502,-1.6800893 -0.517502,-1.9408796 0,-0.7789456 1.021295,-0.5366036 1.419258,0.3367675 0.343046,0.7529131 0.454292,0.7817178 1.556175,0.40292 0.652709,-0.2243853 1.368032,-0.5892886 1.589637,-0.8109015 0.467452,-0.4674528 1.182043,-0.5277703 1.43346,-0.1209896 0.222547,0.3601078 -0.544454,2.5141782 -1.670894,4.6927812 -0.482693,0.933479 -0.877578,2.040077 -0.877578,2.459156 0,1.483211 1.028767,3.248619 2.396138,4.111802 0.744443,0.469927 1.790586,1.416664 2.324989,2.103835 1.132114,1.456091 5.277839,3.600619 6.960789,3.600619 0.881463,0 1.173177,-0.188682 1.466746,-0.948752 0.578392,-1.497557 0.08304,-3.862013 -1.210719,-5.77877 -1.506753,-2.232272 -1.793898,-2.838736 -2.070525,-4.371843 -0.141549,-0.784853 -0.08494,-1.355573 0.148843,-1.500048 0.429525,-0.265465 1.713851,0.768847 1.713851,1.380219 0,0.222144 0.396303,0.776205 0.880657,1.231254 0.70898,0.666031 0.938193,0.734303 1.175587,0.35017 0.162222,-0.26245 0.213948,-0.688179 0.114993,-0.946084 -0.09898,-0.257897 0,-1.18355 0.219945,-2.056953 0.219936,-0.873451 0.327055,-1.660939 0.23807,-1.749884 -0.089,-0.089 -0.987187,-0.345101 -1.995902,-0.569116 -2.214186,-0.4917118 -2.760646,-1.4854678 -0.914361,-1.6630515 0.964322,-0.092717 1.167962,-0.2695832 1.317942,-1.144663 0.159869,-0.9327378 0.377508,-1.0831528 1.32273,-0.9142573 0.159321,0.02845 0.450431,0.4046689 0.646946,0.8359911 0.353515,0.7758992 3.774576,2.8996416 4.117984,2.5562332 C 70.53717,9.5355185 69.81126,8.6785973 68.826135,7.7291282 66.89716,5.8698024 66.804757,5.0602872 68.565764,5.4471043 69.388271,5.6277667 69.550179,5.5781683 69.325351,5.2143854 69.168198,4.9601143 69.000882,4.1284516 68.953548,3.3662136 68.906239,2.6039998 68.8213,1.6758725 68.764859,1.3035304 c -0.0619,-0.40823131 0.12327,-0.72365712 0.466679,-0.79491141 0.402831,-0.0835854 0.97073,0.61869781 1.942241,2.40171541 1.885551,3.4607213 2.865267,6.6600488 2.99958,9.7962046 0.138631,3.235804 0.6424,3.983213 2.058919,3.055061 1.226435,-0.803591 2.173486,-2.73924 2.456133,-5.020063 0.23604,-1.9046999 0.924283,-3.4138309 1.556924,-3.4138309 0.756105,0 1.367315,2.356937 1.131485,4.3633969 l -0.229696,1.954444 1.101971,-0.220388 c 1.555263,-0.311057 1.67963,0.384375 0.406128,2.27132 -0.704041,1.043218 -1.510944,1.743695 -2.434276,2.113031 -0.759635,0.303941 -1.381154,0.786755 -1.381154,1.072917 0,0.728291 0.936477,0.647857 1.97585,-0.169693 0.934341,-0.734957 2.164145,-0.924702 2.164145,-0.333923 0,0.195839 -0.23288,0.913427 -0.517502,1.59461 -0.629345,1.506229 -0.629103,1.49929 -0.05344,1.49929 0.716113,0 1.605917,-1.16739 1.605917,-2.106849 0,-1.421113 2.291971,-5.828071 3.031079,-5.828071 0.588161,0 0.640797,0.309067 0.617239,3.622476 -0.0141,1.992436 0.07092,3.622476 0.189093,3.622476 0.118193,-1.6e-5 0.937476,-0.319649 1.820583,-0.71031 1.515627,-0.670448 2.967027,-0.658802 2.967027,0.02386 0,0.166123 -1.088657,1.153858 -2.419205,2.194891 -2.56272,2.005252 -3.436146,2.255339 -7.688285,2.201823 -2.087104,-0.02627 -2.686483,0.479518 -1.769631,1.493512 0.365532,0.404306 1.246809,0.968207 1.958369,1.253103 0.84949,0.340145 1.293747,0.739704 1.293747,1.163595 0,1.661544 1.694104,4.665951 4.165305,7.387098 1.204609,1.326356 1.638784,3.634235 0.834935,4.438019 -0.908075,0.908084 -3.228412,0.738431 -4.329622,-0.316538 -0.886758,-0.849571 -4.351493,-2.053785 -4.571284,-1.588734 -0.05908,0.125011 0.04134,2.617436 0.223273,5.538637 0.240851,3.868187 0.224675,5.481189 -0.05948,5.936149 -0.214617,0.343642 -0.494589,1.29141 -0.622211,2.1061 -0.127607,0.81473 -0.751511,2.58141 -1.386489,3.92578 -0.634962,1.344491 -1.154471,2.925714 -1.154471,3.513785 0,1.599285 -0.561459,2.778281 -1.811089,3.803372 -0.616755,0.505905 -1.616467,1.402375 -2.221416,1.992131 -1.081621,1.054315 -1.092138,1.095362 -0.626797,2.445889 0.260282,0.7555 0.735166,2.666278 1.055322,4.246268 0.320117,1.57999 0.860807,3.35444 1.201491,3.943261 0.784192,1.355419 1.71265,4.510822 1.71265,5.820668 0,1.289065 2.455682,8.401035 3.879502,11.235845 0.701171,1.39587 1.694709,2.68558 2.749186,3.568357 0.936928,0.784418 1.651293,1.674206 1.651293,2.056808 0,0.608147 -0.211692,0.664258 -2.156295,0.571638 -2.113034,-0.100668 -2.158554,-0.123508 -2.272976,-1.13772 -0.151648,-1.344095 -0.685616,-1.963035 -1.476828,-1.711892 -0.757523,0.240432 -2.025601,-1.59386 -2.027559,-2.932951 -0.0032,-1.484493 -2.806328,-9.798017 -3.712622,-11.007164 -0.479034,-0.63908 -1.171904,-1.958662 -1.539741,-2.932488 -0.367845,-0.973784 -0.951717,-2.081075 -1.29752,-2.460509 -0.345802,-0.379491 -0.957689,-1.388625 -1.359779,-2.242524 -0.402106,-0.853867 -1.023407,-1.932586 -1.380694,-2.397194 l -0.649606,-0.844614 -0.550684,1.318007 c -0.302885,0.724898 -0.550699,1.495872 -0.550699,1.713254 0,0.217406 -0.36093,0.935872 -0.802052,1.596568 -0.44109,0.660729 -1.053606,2.239816 -1.361085,3.508955 -0.307471,1.269173 -0.947349,2.899326 -1.421886,3.622467 -0.914273,1.393331 -2.279912,7.089073 -2.279912,9.508882 0,1.054226 0.271856,1.674052 1.220229,2.782052 2.144084,2.504974 1.970877,3.670406 -0.547484,3.681262 -1.480092,0.0064 -2.052738,-0.49753 -2.052738,-1.806261 0,-0.79803 -0.227843,-1.078808 -1.207495,-1.488135 -1.033763,-0.431927 -1.205334,-0.66521 -1.192383,-1.621142 0.0082,-0.614153 0.249531,-1.737675 0.535951,-2.496689 1.026824,-2.720704 2.200469,-7.268768 2.204692,-8.543641 0.0032,-0.714219 0.395924,-2.924056 0.87458,-4.910755 0.478655,-1.986706 1.017338,-4.772232 1.19709,-6.189863 0.179767,-1.417728 0.42306,-2.961143 0.540673,-3.429668 0.197821,-0.788278 0.09984,-0.869075 -1.310181,-1.080533 -0.838223,-0.125696 -3.049935,-0.04634 -4.914838,0.176318 -3.876335,0.462827 -7.301022,0.221573 -10.406133,-0.733086 -1.166334,-0.358585 -2.361159,-0.559654 -2.655123,-0.446837 -0.294019,0.112834 -1.018514,1.162064 -1.609987,2.331622 -1.048771,2.073693 -2.954204,5.58672 -4.276112,7.883815 -0.894285,1.553909 -0.754243,3.299565 0.471716,5.879615 1.40526,2.957372 4.028136,7.100526 5.771235,9.116028 3.960146,4.579271 4.930667,5.875405 4.933528,6.588286 0.0032,0.699487 -0.163633,0.776246 -1.682193,0.776246 -1.820583,0 -2.438354,-0.528351 -2.924215,-2.501211 -0.175109,-0.711116 -0.443935,-0.948743 -1.073319,-0.948743 -1.626268,0 -2.448002,-0.672576 -3.089129,-2.528194 -0.868849,-2.514629 -4.144065,-7.989789 -6.531756,-10.91913 -2.545836,-3.123329 -2.78115,-3.889581 -1.750038,-5.700065 0.917819,-1.611495 1.777021,-4.82499 1.598228,-5.977607 -0.09305,-0.600129 -0.269833,-0.740252 -0.700735,-0.55539 -0.316974,0.135988 -1.525564,0.603433 -2.685879,1.038744 -1.160273,0.435319 -3.086106,1.422668 -4.27973,2.194134 -1.193592,0.771458 -2.512671,1.40264 -2.931444,1.40264 -1.433476,0 -4.208734,1.85947 -6.000372,4.020294 -1.438091,1.734346 -1.987462,2.807517 -3.002297,5.864988 -0.68313,2.058162 -1.26449,4.440889 -1.29185,5.294723 -0.05713,1.782139 1.134739,4.878804 2.394933,6.222424 0.451339,0.481242 0.920407,1.373932 1.042362,1.983692 l 0.221766,1.108765 -1.871688,0 c -1.029428,0 -2.058012,-0.186296 -2.285641,-0.414002 z M 73.443496,22.844314 c 0.424382,-0.392741 0.05972,-2.972749 -0.713744,-5.05035 l -0.662872,-1.780487 -1.61135,2.177104 c -1.339453,1.809727 -2.310514,3.550416 -2.310514,4.141647 0,0.06899 0.252659,0.378056 0.561468,0.686865 0.448641,0.448642 0.951306,0.51502 2.50121,0.33032 1.066872,-0.127131 2.072935,-0.354426 2.235737,-0.505099 z m -2.92602,-8.222242 1.165013,-0.966282 -0.952758,-0.749439 c -0.524014,-0.412188 -1.089624,-0.749447 -1.256835,-0.749447 -0.484772,0 -1.446935,2.297102 -1.215159,2.901148 0.302289,0.787714 0.930561,0.666499 2.259707,-0.43598 z" />
</svg>
