<!-- https://openclipart.org/detail/14492/giraffe-contour -->
<svg xmlns="http://www.w3.org/2000/svg" width="100px" height="100px">
  <path d="M66.48 4.6c-.04 1.43-1.13 2.34-1.9 3.45-.9 1.42-1.52 3.24-1.55 4.86-.07 3.7 1.64 7.1 2.74 10.4.25 1 0 1.4.13 2.3.3 1.8.95 3.5 1.08 5.4.3 4.6-1.35 9-1.2 13.5.1 2.5 2.34 4.1 1.87 6.7-.36 2.1-2.83 3.7-2.9 5.6-2.3 2.9-.53 6.3-.53 9.5 0 2.1-.22 4.1-.1 6.1.08 1.2.64 2.4.88 3.7.37 1.87.42 3.78.74 5.6.17 1-.2 1.9-.08 2.94.2 1.5.95 2.64 1.37 4.05.4 1.3.38 2.73.75 3.95.27 1 1.22 2 1.98 2.6.67 1 1.83 1 1.76 1.95-.1 1.33-1.8 1-2.63 1-2 0-3.2-3-4.1-4.63-1-1.8-.7-3.32-1-5.45-.2-1.2-.9-2.35-1.1-3.7-.2-1.1.1-2.2-.2-3.3-.2-1-.7-1-.9-1.5-.6-1.4-1.1-3.47-1.2-5.1h-.2c-.2 3.44-1.1 6.48-1.6 9.8-.3 1.84-.1 3.85-.1 5.78 0 1-.4 1.6 0 2.42.3 1 .7 2 1.2 2.6.5 1 1.54 1 1.73 1.4.1 1-.65 1-1.17 1.1-1.07 0-3.36 0-3.67-1.1-.13-1 .36-1 .35-1.34.1-1.1-1.1-2.1-1.28-3.1-.4-3.66.84-7.3 1.2-10.9.23-2.26-.44-4.5-.32-6.5.1-1.74.45-3.56.58-5.3.04-1-.24-1.7.3-1.7l-.15-4.14c-2.4 1-4.46 1-6.9 1-.65 0-2.1-1-2.6 0-.8 1-.5 2.32-1.15 3.13-1.5 2.1-2.14 4.13-3.2 6.36-.5 1.1-1.4 2.3-1.6 3.4-.8 4.45 1.23 9 3.4 12.8 1.02 1.8 1.14 4.15 3.3 5.26.33 1.3 3.5 1.9 3 3.22-.4 1.05-1.6 1.05-2.35 1.05-1.82-1.02-4.16-1.62-5-3.54-.34-1-.3-1.63-.6-2.43-.9-2.32-2-4.55-3.1-6.67-1.1-2.4-2.96-4.3-3.3-7-.25-2.2 1.2-3.8 1.2-5.9h-.2c-.8 1.7-2.2 2.82-2.8 4.64-.5 1.5-.1 3.04-.16 4.55-.2 3.64-1 8.7 1.3 11.9.7 1.1 2.1 1.2 3.1 1.92-2.17 2.94-7.3 0-7.06-3.43.43-5.8-1.3-11.6-.7-17.46.2-1.8 1.5-1.97 2.1-3.4 1.4-3.2 1-6 .5-9.4-.2-1.5.04-3-.9-4.3-.5 3.68-.9 7.3-1.45 10.9-.37 2.5-1.1 5.2-1.17 7.6 0 1.5-.3 2.8-.54 4.37-.1 1-.3 1.4-1 1.4-1.2 0-1-1.7-.9-2.4.17-1.85-.75-7 1.6-7.6 0-1.4.6-2.64.7-3.96.4-4.83.3-11.34 4.1-15 2.1-2 4.9-3.5 7.4-4.82 1.13-1.02 2.7-1.02 3.62-1.82.4 0 1.15 0 1.02-1 .9 0 1.6-1.3 2.24-1.9 2.8-2.67 3.7-6.3 5.42-9.6.57-1.07 1.9-1.1 2.37-2.28.42-1.1 0-2.45.2-3.67.2-1.5.3-2.97.42-4.5.05-1 .4-1.1.13-1.63 1-2.5-.5-6.57-.7-9.3-.03-1.1.1-2.43-.9-3.24-1.3-1-5.53 1-5.93-1.5-.2-1.46 3.4-1.36 3.94-3.1-1 0-2.53-1.8-1.16-2.6 1.28-1 2.56 1.6 3.97 1.3 1 0 1.34-1.2 2.25-1.6 1.5-1.03 3.25 0 4.8-1.03 1.52-1 2.85-1.8 4.5-2 1.2 0 2.9 1.1 1.94 2.3-.87 1.2-2.87 2-4.24 2.3z"/>
</svg>
