<!-- https://openclipart.org/detail/167345/dark-grass -->
<svg xmlns="http://www.w3.org/2000/svg" width="100" height="100">
  <path d="M76.04 46.18c-12.2 4.18-24.06 8.2-36.7 35.08.63-25.14 6.83-48.07 18.4-71.92C50.3 20.14 38.8 33.36 32.58 84.8c-5.04-19.25-13.6-34.4-21-43.13v1.7C8.15 40.62 4.4 38.67.28 37.4c3.3 2.26 6.2 4.64 8.73 7.13l-1.2.7C20.78 56.5 25.6 75.7 26.78 95.03H42.3c1.58-22.76 14.97-37.6 33.74-48.8z"/>
  <path d="M92.5 30.04c-3.04 2.32-5.77 4.8-8.22 7.43l1.7-.84c-1.8 2.02-6.44 6.4-7.92 8.53l1.7-.84c-1.36 2.17-6.1 8.43-7.28 10.7-10.65 20.7-9.5 39.96-9.5 39.96h-13.3c1.33-25.36-6.8-48.26-26.9-68.07C35.3 37.8 48.1 49.1 54.42 83.58 56.32 26.37 73.94 12.6 87.6 4.9 64.64 22.2 59.37 44.67 61.22 77.3 64 64.57 72.7 45.53 78.94 37.07l-1.68 4.64c1.7-1.9 7.86-8.45 7.86-8.45l-.22 1.5s4.9-3.3 7.65-4.7z"/>
  <path d="M10.8 50c9.86 11.9 20.02 22.84 20.45 44.98h22.02c1.4-18.88 9.38-36.12 41.6-27.26C78.6 60.62 58.04 59 49.43 87.86 49.46 59.56 56.88 40 69 26.04 55.35 38.88 46.1 58 43.15 86.12 29.77 33.62 18.2 25.84 5.73 10.4 19.96 29.58 34.6 51.16 36.5 86.46 27.3 63.76 19.52 58.1 10.8 50z"/>
  <path d="M39.26 20.12c5.82 18.44 12.7 40.08 13.4 74.86h9.1c-.05-21.28 2.2-43.87 18.28-72.93-8.98 14.6-17.78 29.8-22.2 59.4-9.16-44.7-12.88-47.34-18.58-61.3z"/>
  <path d="M2.92 53.13c11.34-3.2 33.58 4.02 38.36 23.1 2.04-36.3 16.7-47.08 29.9-55.27-17.78 15.7-25.83 27.13-23.4 59.1 8.16-17.97 23-27.04 38.92-23.88-21.95 1.7-36 24.85-38.72 38.77h-6.5c-3.6-12.6-2.78-36.53-38.56-41.85z"/>
  <path d="M4.63 26.2c32.55 4 46.33 34.8 46.4 68.8h8.74C63.85 79.74 73.3 62.86 99.7 61.5c-19.8-2.63-30.24 2.18-42.8 23.78-10.63-49.4-32.2-58.43-52.23-59.02z"/>
</svg>
