<!-- https://openclipart.org/detail/249397/laurel-branch-3 -->
<svg xmlns="http://www.w3.org/2000/svg" width="100px" height="100px">
  <g fill="black" stroke="black" stroke-width=".56">
    <path d="M-16 132.83l.62 3.16c37.82-20.2 67.88-53.2 83.6-89.2-14.12 27.5-40.3 62.7-84.22 86z" transform="matrix(1.0434 0 0 .88647 17.15 -21.234)"/>
    <path d="M-1.86 124.4C-5.2 112.53-.4 105 5.92 98.1c-2.6 10.15-5.15 13-7.78 26.3zm5.64 0c10.92 3.22 23.4-.1 33.14-10.82-9.9 4.46-21.7 9.47-33.14 10.83zm4.66-7.17C7.5 100.03 11 93.2 20.24 81.56c-4.02 12.96-7.56 25.38-11.8 35.67zm8.67-2.95c9.1 1.37 23.6-2.42 32.3-13.16-8.3 4.84-21.4 8.2-32.2 13.16zm5.7-8.53c-1.9-17.4 1.9-27.53 11.5-38.1-3.2 14.16-9 25.32-11.5 38.1zm7.7-3.96c21.2.1 27.3-8.3 33.9-19.1-11 11.4-16.9 10.6-33.8 19.1zm4.7-8.3C34 82.1 37.6 65.2 48.7 54.2c-4 15.9-8.9 24.97-13.5 39.24zm8.2-5.7c13.4 1.4 22.8-10.1 27.4-20.9C60.5 76.4 55 82.3 43.4 87.8zm3.4-7.7C47 67.5 54 52.6 64.4 43.6c-5.15 12.2-8.12 17.6-17.52 36.5zm7.7-7.5C64.9 64 67.2 58.7 75.6 49.1c-1.25 8.24-10.85 24.8-21.1 23.53zm9.3-17.1c3.8-14.5 8.3-18 15.5-31.1-2.7 13.5-3 17.4-15.5 31.05z" stroke-linejoin="round" transform="matrix(1.0434 0 0 .88647 17.15 -21.234)"/>
  </g>
</svg>
