<!-- https://openclipart.org/detail/245162/leaves-on-a-stalk-silhouette -->
<svg xmlns="http://www.w3.org/2000/svg" width="100px" height="100px">
  <path d="M498.53 307.57c-.18 0-.35-.02-.48-.03.17.03.33.04.48.03zm208.8 574.93l.45.1-.44-.1zM45.03.45c0 .4-.1.82-.04 1.23 0 .5-.1.97-.1 1.45 0 .27-.1.53-.1.8-.1 0-.2-.08-.2-.17l-.1.03c-.2.3-.1.7-.1 1.1-.1.4-.1.7-.1 1.1-.3 0-.4-.3-.4-.5-.2.4-.2.8-.3 1.3 0 .1-.1.1-.2 0-.1-.2-.1-.4-.2-.6-.2.1-.2.3-.2.5s-.1.4-.2.6c-.1.2-.1.4-.2.6-.3 0-.3-.4-.4-.7-.2.1-.2.3-.3.5-.2.4-.3.8-.4 1.3-.2.4-.5.8-.6 1.2-.2-.1-.3-.4-.4-.6v-.1c-.2 0-.1-.3-.3-.2-.2.3-.3.7-.4 1-.1.3-.1.7-.2 1-.1 0-.1 0-.2-.1-.1-.2-.1-.4-.1-.6-.3.5-.5 1.2-.6 1.8-.1 0-.2.1-.3.2-.1.2-.1.5-.2.8H38c-.1-.2-.1-.5-.1-.8-.2.3-.4.5-.5.8l-.5 1.9c-.04.1-.14.2-.25.2 0-.3-.1-.5-.2-.7-.1.1 0 .2-.2.2h.1c0 .2-.1.5-.2.7 0 .4 0 .8-.2 1.2-.1-.1 0-.2 0-.3l-.1.3c-.2-.1-.2-.4-.2-.6-.3.3-.3.8-.4 1.3v.8l-.2-.1V18c-.14.2-.2.5-.2.8.1.3.06.6 0 .9-.2 0-.2-.2-.4-.2-.1-.1-.3-.08-.4 0l.2.2c0 .3-.1.52-.1.8 0 .63.05 1.3 0 1.9-.2 0-.27-.2-.25-.3-.1.2-.2.6-.2.9l.2 1c0 .1.1.2.06.3-.1 0-.2 0-.2-.04-.2-.2-.3-.4-.4-.6-.1.5.3 1 .3 1.5-.05.32 0 .65 0 1h-.26c0-.2-.1-.35-.1-.5-.2.5-.1 1-.06 1.5.1.34.25.7.2 1.1-.2 0-.2-.18-.25-.3 0 .3-.1.55 0 .8.1.3.2.6.2.9-.1.03-.1.02-.2-.04-.1-.1-.2-.3-.2-.4 0 .3 0 .6.1.8.2.35.3.7.4 1.1.1.1 0 .3-.1.2l-.1.03-.1.56v.8c-.1 0-.3-.1-.2-.3-.1-.1-.2-.2-.2-.3l-.1-.1c.1 0 0 .2.1.3.1.5.3 1 .6 1.5h-.2c0 .1 0 .3.1.4 0 .1.1.2 0 .3h-.1c0 .1 0 .3.1.3 0 .3.2.6.3.9.1.3.3.5.4.8-.1.3.1.6.2.9.1.3.3.5.4.8.1.1.2.3.2.4 0 .3.2.4.3.6.2.2.4.5.5.8l-.1.1c-.2 0-.3-.1-.5-.2l.3.5c.2.2.5.5.8.6.3.2.8.2 1.1.5.1.1.2.3.3.4l-.2-.1c0 .2.2.3.3.5.3.3.6.7 1 1.1.2.2.4.3.6.6H39c.2.1.2.3.3.4.2.3.3.6.4.9l-.1.1c.2-.1.2.1.3.2 0 .1 0 .2-.05.3.06.3.16.5.1.7 0 .1.1.2.1.3-.1.1-.2 0-.3-.1-.4-.3-.6-.8-.96-1.2-.2-.2-.5-.4-.7-.6-.1-.2-.3-.3-.5-.3.1.1.2.3.2.4l-.98-.7c-.17-.2-.28-.3-.4-.4v.1c-.1-.3-.4-.4-.6-.4-.07.1 0 .2-.1.3l-.6-.3c-.3-.1-.55-.3-.8-.5-.1-.1-.4-.1-.6-.2l.26.3c-.1.1-.14 0-.2 0-.26-.1-.46-.3-.7-.4-.4-.1-.74-.4-1.15-.6l-.5-.1c.2.3.5.4.5.7-.2 0-.4-.1-.6-.1l.2-.1h-.3c-.4-.1-.7-.3-1.1-.4-.5-.3-1.1-.5-1.7-.4.2.1.4.3.4.5h-.2c-.1.1-.1.1-.1.2l-1-.2c-.4-.1-.7-.2-1.1-.2 0 .1 0 .1.1.2s.2.2.1.3c-.4.2-.8.1-1.2.1l-1-.3h-.8l-.1-.1.1.1-.4.2.2.1v.3c-.3 0-.7-.1-1-.3-.1 0-.3-.1-.4 0 .2.2.4.4.4.6-.4 0-.9-.1-1.4.1.2 0 .3.2.1.2-.4 0-.9-.1-1.3 0-.2 0-.4 0-.6.2.2 0 .3 0 .4.1v.2c-.5.1-1 0-1.5 0-.2 0-.4.1-.6.1v.2c-.4 0-.7-.2-1.1-.2-.1 0-.2-.1-.4-.1h-.4l.1.1c-.3-.1-.6-.1-1-.1-.8-.1-1.7.1-2.5-.1l-.1.1.1.1.1-.1c.2.2.5.4.7.4.6.2 1.2.5 1.8.8v.1h.1c.3.1.5.3.8.5.1 0 .1.2.1.3-.1-.1-.3-.1-.4-.2.4.4.7.8 1.1 1.2.3.2.4.6.6.9.1.1.2.2.2.3-.2 0-.3 0-.5-.1-.1 0-.1-.2 0-.2h-.1c0 .5.5.9.8 1.2.3.3.6.5.8.9.1.1.1.1 0 .2v.1c-.3 0-.6-.1-.9-.12.2.25.4.4.6.6.3.3.7.5 1 .9.1.3.4.5.5.8.1.2.2.4.2.7-.4-.1-.7-.4-1-.5.1.8.8 1.3 1.2 2 .07 0 0 .1 0 .2-.1 0-.2-.1-.3-.2.14.4.4.7.7.98.2.2.4.5.6.7v.3c-.1 0-.2 0-.3-.1H20c.2.3.5.6.7.9.06.2.2.3.27.5 0 .1-.16.1-.2.1-.2 0-.4 0-.6-.1l.3.3.94.5v.1l.1-.1.5.2v.1l.1-.05c.2 0 .5.1.6.3.3.3.7.5.8.9.1 0 .1.1.1.2L23 60c.3.2.7.4 1.1.5.3.2.8.2 1 .5H25h.3v.1l.2.02c.3.46.9.78 1.1 1.3.2.2.2.5.2.7-.22.08-.5-.1-.7 0 .2.2.3.4.5.57.2.1.4.3.6.4V64l.6.3c.1.1.2.1.2.2l.1-.1c.3.1.5.3.8.5.1.1 0 .26 0 .4h-.3c.1.1.3.14.4.16l-.1.1c.2.17.5.24.6.5l-.2-.03c.2.1.3.3.4.4.2.2.5.4.8.58v.1c-.2 0-.4-.1-.57 0-.1-.2-.35-.1-.5-.1-.04-.2-.26-.1-.4-.2l.2.3H29c.1 0 .16 0 .2.1-.36 0-.67-.2-1-.2l.1-.1-.1.1c-.14.1-.3.1-.4.1h.3l-.1.2h-2.4l.4.3c.1.1.1.2.1.2-.8.1-1.6 0-2.4.1h-.2c.24.1.6.2.56.5-.45.1-.9.1-1.3.1-.2 0-.3.1-.5.1v.2c.05-.2.24-.1.36 0v.2c-.3.1-.64.1-1 .2-.2.1-.44 0-.7.1l-.64.2c.1.2.33.1.5.2v.2c-.37.2-.76.3-1.1.5v.2c-.3.1-.6.2-.88.2-.7 0-1.3.2-1.8.5.3 0 .6 0 .9.1v.2c-.5.3-1 .4-1.54.6-.4.1-.9 0-1.3.2-.1.1-.3.1-.3.2.2-.1.5-.2.6 0h-.4.4c-.1.1-.2.1-.3.1-.7.2-1.43.3-2.2.3-.23.1-.5 0-.8 0 .07.1.1.2.1.3-.5.1-1.1 0-1.62.3l-1.5.9c-.33.2-.7.4-1.1.5.4 0 .8.1 1.16.1.3 0 .52-.1.8 0l.6.1v.1c0-.2.2 0 .3 0 .1.2.3.1.4.3 0 .2-.2.1-.3.2.2.1.4.1.6.1.2 0 .4.1.5.3l-.2-.1c.1.4.42.6.72.9.24.1.52.2.77.4v.3H13c-.04.2.1.4.3.3l.1.1c.25 0 .4.2.6.4.25.1.47.3.68.5.1.1.1.2.08.3h-.32l.04.2c.3.2.55.4.84.7.15.1.3.2.4.4h-.1c.2.2.33.4.56.5.3.1.5.4.78.5l-.17.1-.2-.2.1.1s.1 0 .2.1H16l.1.1.1-.1c.4.4 1 .7 1.5 1 .2.1.5.2.7.4v.2h-.7c.2.1.3.3.5.4.3.2.6.4.9.4.2 0 .3.2.5.2h-.1c.1.2.3.3.5.3.2.3.6.2.9.4.2.1.1.3.2.5.4 0 .7.1 1 .3v.1c-.2.1-.4.1-.6 0 0 .1.2.2.2.3.2.3.6.5.9.6.6.1 1.2.5 1.9.5.2 0 .3.1.5.1.6.1 1.2.2 1.8.4.3.2.8.3 1.2.3v.2l-.2.1c.2 0 .5.1.8.2.6.1 1.3-.2 1.9-.1l1.3.1c.2-.1.1.2 0 .2l-.4.1c.4 0 .8 0 1.2-.1.53-.2 1.1-.5 1.62-.7.4-.1.77-.1 1.15-.1.2 0 .3.2.2.2-.1.1-.3.1-.3.3.2-.1.5-.1.8-.2.4-.1.8-.3 1.2-.6v.1-.1c.3-.1.52-.3.8-.5.32-.2.6-.4.95-.6h.3c0 .1 0 .2-.1.3.1 0 .2-.1.3-.2.36-.2.8-.3 1.1-.7.1 0 .18-.1.3-.1l-.08.1c.1-.4.5-.5.8-.7.3-.4.6-.8.9-1.3 0-.1.1-.1.2-.1v.3c.1-.1.1-.3.2-.5l-.06-.1c.05 0 .3-.1.2-.2.04 0 .1-.1.16-.2h.1l.2-.5.2-.1.1-.2h.1l.06.1c-.1-.1 0-.2.1-.2H44c0-.1.1-.2.14-.4.3-.5.4-1.1.6-1.6.1-.1.1-.1.2-.1.1-.2.4-.4.6-.6.1-.1.3-.2.3 0V79c.2 0 .5-.1.7 0 0 .4-.1.7-.2 1l-.6 2c-.1.2-.2.4-.2.7h-.1v.1c-.5 1.3-.9 2.6-1.4 3.94l-.9 2.3-.1-.1v.17H43h.1c-.3.9-.7 1.8-1.1 2.6l-.24-.1-.1.1.2.1c-.17.6-.47 1.1-.7 1.7-.1.2-.14.4-.3.5-.04.2-.15.5-.3.7-.15.2-.1.4-.2.6-.3.6-.57 1.2-.8 1.8l-.3-.1v.1l.2.1c-.1.4-.3.8-.5 1.2h2v-.1c.2-.7.5-1.3.8-1.9h.1-.1c.4-1.2 1.1-2.4 1.5-3.6h.2l-.1-.2.2-.5.1.1-.1-.1.1-.1h.2c.1-.4.3-.8.5-1.2h.1-.1c0-.2.1-.4.2-.5.3-.7.6-1.3.8-2l.6-1.7c.1-.5.4-1 .5-1.6l.1.1c-.2-.2 0-.4 0-.5l.6-1.7c.3-1.1.7-2.1 1.1-3.1.1 0 .2-.2.4-.1s.3.3.5.5l.3.5c.2.6.1 1.2.2 1.7v.3l.1-.2c.1.1.1.2.2.3 0 .4.1.7.2 1.1 0 .3.2.5.3.8 0 .3.2.6.4.8.1.2.3.4.4.7.1.2.3.4.5.6 0-.1 0-.2-.1-.3.2 0 .4.2.6.4.3.3.4.7.6 1 .16.2.24.5.4.8.2.4.44.8.6 1.2.1.3.3.5.44.7.2 0 .2.2.3.3.1.2.03.4.1.6.05.3.3.5.55.7.5.5.93 1 1.5 1.3h.15l.1.2-.1-.1-.1-.2c.2 0 .44.1.7.2.3.3.6.5.9.8l.6.4-.1.1.1-.1c.44.1.9.3 1.4.4l.1.1-.1-.1c.27.1.47.3.7.4.3.2.6.3.9.5.2.1.37.3.6.3.25.1.4.2.65.2.2.1.5.1.7.2.3 0 .6.1.9.2-.1-.1-.3-.2-.36-.4 0-.1.1-.1.2-.1.5.1.9.2 1.4.4 0 0 .1 0 .1.1l.2-.1v.1-.1c.2-.1.4-.1.5 0 .6.2 1.3.4 1.9.5.2 0 .4-.1.6-.1l-.1-.1-.3-.1v-1c.4 0 .7.1 1.1 0 .2-.1.5 0 .7-.1.2 0 .4-.1.5-.2.1-.1.1-.2.2-.2H74c.3 0 .54-.2.84-.2v.1c.06 0 .1-.1.1-.2l-.04.1c-.2 0-.4-.2-.54-.3.8 0 1.6-.1 2.4-.2.34 0 .7-.2 1-.3h.1c0-.1.1-.1.12-.1-.2 0-.4-.1-.6-.1 0-.1.06-.1.1-.2.12.1.3 0 .43 0 .3 0 .5-.2.8-.2.6-.2 1.3-.3 1.9-.4.3 0 .5-.2.7-.2l-.2-.1.1.1c-.2 0-.4-.1-.6-.2V93c.3-.1.6 0 .8-.2.1 0 .3-.2.4 0v-.2c.2.1.3-.1.5-.2H82l.1-.3c.3 0 .56-.1.8-.2.35 0 .66-.2.95-.3.3-.3.7-.5 1.06-.7l.1-.2c-.1 0-.3 0-.4-.1l.1-.1c.4-.2.8-.3 1.2-.6.3-.2.7-.3 1-.5.3-.1.5-.3.7-.2.2-.2.5-.3.7-.4-.2-.1-.4-.1-.6-.2.1-.2.4-.2.6-.2.1-.1.3-.2.5-.2V88c.1-.1.3-.16.4 0l-.1-.1.5-.3.1.1c.1-.1.3-.1.4-.2v.1-.1c.4-.2.8-.3 1.1-.6l-.3-.04c0-.25.3-.2.4-.3.1-.1.2-.1.2 0v-.15c.1 0 .2 0 .2.1 0-.1 0-.2.2-.2.3 0 .4-.2.7-.2v.1-.1l.6-.3c.1-.1 0-.3 0-.4v-.1c-.1 0-.1.3-.2.3-.5-.1-.9-.5-1.4-.6-.4-.1-.9-.3-1.3-.5-.1-.1-.2-.1-.2-.2l.3-.1-1.4-.9v-.1c0 .1-.1 0-.2 0l-.6-.3c.2 0 .4-.1.6 0l.2.1-.1-.1c-.1-.1-.3-.2-.5-.2-.4-.2-.8-.5-1.2-.8-.1-.1-.2-.3-.3-.4l.3.1c-.2-.2-.5-.4-.7-.7l-.1-.2-.1.1c-.2-.2-.5-.4-.7-.6.1-.1.1-.3-.1-.4-.3-.4-.7-.8-1.2-1.1-.1-.1-.3-.2-.3-.4v.1c0-.1-.1-.2-.2-.2h.1c-.2-.3-.4-.6-.8-.8-.1-.4-.4-.5-.6-.7-.2-.2-.4-.3-.6-.4V76l.3.1c0-.1 0-.2-.1-.3-.2-.16-.3-.35-.5-.5-.6-.38-1.2-.6-1.9-.75-.3-.1-.6-.17-.9-.37v-.16c.1 0 .2.05.4.1-.1-.16-.3-.2-.4-.3l.1-.07c-.3.16-.5-.12-.8-.12l.1-.08-.1.02v-.1.1l-.6-.18v-.1c0 .1-.2 0-.2 0-.5-.2-.9-.3-1.4-.4v-.1c.3-.1.6-.1.8-.1-.2-.2-.5-.3-.8-.4-.5-.2-1.1-.4-1.6-.5-.1 0 0-.2 0-.2.2-.2.5-.3.8-.3l-1-.3v.1c-.3-.1-.7-.1-1-.2-.4-.2-.8-.2-1.2-.3-.2-.1-.4-.2-.7-.2v-.3c.1-.1.2-.2.3-.2h.5c0-.1 0-.3.1-.4.3 0 .6-.2 1-.2 0-.1-.2-.2-.1-.3.6-.2 1.3-.5 1.8-.9.1-.1.3-.2.4-.3-.1 0-.3.1-.5 0v-.2c.4-.3.8-.5 1.2-.8-.1-.2.2-.1.2-.1v-.1l.2.1.3-.3c-.1.1-.3.1-.4.1 0-.2.2-.2.3-.3l.4-.3v.1c.1-.2.3-.3.4-.5.2-.1.5-.2.7-.4l.6-.4-.1-.1v.1c-.3 0-.6.2-.9.1l.9-.9c.3-.3.7-.4 1-.8h-.2c.1-.3.3-.4.5-.5.4-.3.8-.4 1-.8.2-.3.4-.5.5-.7.1-.1.2-.1.3-.2H81c.03-.1.08-.1.1-.2h-.17c-.1.2-.33.2-.5.4-.12.1-.23.1-.35.1.04-.2.26-.4.42-.6.45-.5 1.04-.9 1.6-1.3l1.16-.6c.06-.1.23-.1.2-.2-.25 0-.5.1-.73.1-.02-.2.13-.2.25-.3l-.13-.1h.17c.34-.3.77-.5 1-.9h-.32l.04-.2c.4-.3.66-.7 1.06-1 .28-.3.56-.5.73-.9-.26 0-.5.1-.77.1.34-.5.62-1 1-1.5l.12.1c.05-.1.03-.2.02-.2.35-.3.46-.7.6-1.1h.14l-.1-.2c.05.1.12.1.16.1l-.1-.1c.14-.2.24-.5.3-.7-.2 0-.38.2-.62.2.18-.3.2-.6.33-.8l.3-.7.2.1c-.2-.2 0-.4.1-.6.1-.2.1-.4.1-.6.1-.2.3-.4.3-.6.1-.1.1-.4.3-.4h-.1l.4-1.1-.1.2c-.1 0-.2.1-.3.1.2-.3.3-.6.4-.9h.1c.1-.5.4-.9.4-1.3-.2.2-.4.4-.7.5.1-.3.3-.5.4-.8l-.2-.1h.1l.1-.3h.1l.1.1-.2-.1-.1.1c-.1 0-.1-.2 0-.3.3-.3.5-.7.7-1 .1-.2.2-.4.2-.6l-.2.1c0-.2.2-.3.3-.5.1-.2.3-.4.5-.5.2-.1.4-.4.6-.5.1-.2.3-.3.4-.4.2-.3.4-.6.6-.8h.1l-.1-.1c.1-.1.2-.2.3-.4l-.2.1v.1h-.1l.1.1c-.4.1-.8.4-1.2.5 0-.1-.1-.2-.2-.1l.2.1c-.6.1-1.2 0-1.8.2-.1 0-.2.1-.4.1-.1 0-.2-.2-.4-.2-.3 0-.7 0-1.1.1h-.9.4c-.3-.2-.6-.3-1-.3s-.8.07-1.2.06c-.1-.14.1-.14.2-.23l-.1.1c-.1-.1-.2-.2-.3-.2h-1.2c-.1.1-.3.1-.5.1-.1-.2.2-.3.4-.4l.1-.1-.1.1c-.3-.2-.7 0-1 0-.3.1-.6 0-.8 0 0-.1 0-.2.1-.3.2-.2.4-.4.7-.4l.1.1v-.1h.2l-.1-.1h.1c-.5-.1-1-.1-1.4-.1-.4.1-.9.2-1.4.2 0-.1.1-.2.3-.2l.1-.1c-.2 0-.3-.1-.4-.1-.5 0-1 .2-1.5.3.1-.3.3-.6.6-.7h-1l.1-.1-.1.1c-.5 0-1.1.2-1.5.5-.3.2-.6.3-.9.4-.1-.3.2-.4.4-.5-.2 0-.4 0-.6.1-.6.3-1.4.3-2 .5.1-.3.4-.4.5-.6l.1.1c0-.1 0-.2.1-.2-.3.1-.7.2-1.1.4-.4.2-.8.4-1.3.5-.1 0-.3-.1-.4 0-.2.1-.4.1-.7.2-.2 0-.4.1-.7.2.1-.4.3-.8.6-1.1-.6.1-1.1.6-1.7.7-.4.1-.9.2-1.3.5 0-.3.2-.5.3-.7 0-.1.1-.1.1-.2-.5.4-1.2.6-1.8 1.1-.3.1-.6.4-.9.5l-.6.3c0-.3.3-.5.4-.7-.2.1-.4.1-.6.3-.2.2-.4.3-.6.5-.1.1-.2.4-.4.4-.2.2-.3.4-.4.6-.3.4-.6.6-1 .8l-.1-.2c.1-.1.1-.3.1-.5-.2.1-.2.2-.3.3-.1.1-.2.2-.3.4-.2.4-.4.7-.6 1-.1.2-.3.3-.5.3 0-.2.2-.4.3-.7-.3.1-.4.3-.6.5-.3.2-.5.5-.6.8-.1.1-.2.3-.4.3V45c-.1 0-.2.1-.2.2-.1.2-.3.5-.3.7H57l.1.2-.36 1h-.1v-.7c-.36.7-.26 1.5-.3 2.2-.05.2-.2.4-.18.6-.1.1-.17.2-.24.3-.25.4-.5.7-.8 1-.2.3-.53.5-.8.7-.23.2-.56.35-.9.3-.45-.1-.9-.26-1.37-.24h-.3c-.05-.1-.13-.3-.25-.1-.24.3-.5.7-.7 1.03h-.12V52c-.3.23-.4.6-.6.93-.25.4-.44.84-.6 1.3-.04.08-.2.12-.2 0-.07-.53-.05-1.07-.1-1.6-.04-.22 0-.44 0-.65l.2.08-.23-.1v-.33c.23-.1.5-.04.8-.12v.1-.1c.02 0 .1 0 .14.1-.1 0-.1-.1 0-.1-.2 0-.2-.1-.1-.2.3-.1.6-.5 1-.5l.1-.1c-.1.1-.2.2-.3.1 0-.3.3-.4.5-.6 0 0 .1 0 .1.1V50c.1-.1.3-.2.4-.37.1-.02.2-.16.4-.15l-.1-.23c.1-.15.2-.25.3-.4.2-.33.5-.63.9-.8-.2-.16 0-.36.2-.4.3-.2.4-.64.7-.77l-.1-.1c.2-.27.4-.5.5-.84l-.2.13v-.4h.1v-.23l-.1-.1.1-.23c.2 0 .1-.1 0-.2.1-.1.1-.4.3-.3-.1 0-.1 0-.1-.1v-.4c.4-.5.6-1.1.8-1.8h.1-.1c.1-.3.4-.6.6-.9.1-.3.4-.5.5-.9.1-.3.3-.5.4-.8-.3.1-.5.4-.8.4 0-.2 0-.6.2-.7.2-.1.4-.3.6-.5 0-.1-.1-.1-.2-.1.1-.2.1-.5.2-.8l.1.1c-.1 0-.1-.1-.1-.1 0-.4.1-.8-.1-1.2 0-.4.1-.9-.1-1.3-.1-.2-.2-.3-.2-.5-.1-.6-.2-1.2-.5-1.8-.1-.3-.1-.8-.5-1 0-.1-.1-.3-.2-.5 0-.3-.4-.5-.5-.8 0-.2.1-.3.1-.5-.1-.5 0-1 0-1.5l.3-.5c0-.2-.1-.5 0-.7.1-.1.2-.1.3-.2.4-.4.7-.9 1-1.3V26l-.3.04c0-.26.1-.53.1-.8 0-.3-.1-.6 0-.85.1-.2.1-.4.1-.6l-.1.1v-.2h.1l-.1-.1c0-.4.1-.8.1-1.2l-.2.3c-.1-.1-.1-.3-.1-.4l-.1-.9c0-.2-.1-.5-.2-.7l-.1.4c-.1 0-.2 0-.2-.1 0-.4-.1-.7-.2-1-.2-.3-.3-.6-.5-.9l-.5-.6c-.1-.2-.2-.3-.2-.5h.1c-.1-.1-.2-.3-.2-.4 0-.1-.2-.2-.2-.3l.1-.1c-.2.1-.3-.1-.3-.2-.2-.4-.2-.8-.2-1.2-.1-.3-.1-.5 0-.8 0 0-.1-.1-.1-.2-.2-.7-.6-1.3-.5-2 0-.3-.1-.5-.1-.8h.1c-.1 0-.2-.1-.2-.2-.2.2-.4.5-.6.7-.1-.5-.3-.9-.5-1.3-.1-.2-.1-.4-.2-.6 0 .4-.3.7-.6.9-.1-.4-.2-.8-.4-1.1L50 9.2c-.1-.17-.2-.34-.4-.4.1.3 0 .63-.1.9h-.1c-.2-.7-.4-1.2-.7-1.7l-.23-.3c-.08 0-.1-.2-.2-.2l.04.4-.4-.9c-.2-.2-.3-.44-.5-.7-.3-.3-.6-.7-.7-1.2-.1-.3-.1-.5-.1-.8 0-.1 0-.3-.1-.4 0 .2 0 .6-.2.5-.1-.45-.4-.85-.6-1.3-.2-.38-.4-.76-.7-1.1-.2-.3-.3-.6-.5-.8zm-.2 50.7c.23 0 .44.13.67.1.04.08.16.1.24.1.5 0 1 0 1.5.03.1.1.25.1.4.12.03.1.18.1.22.2.13.23.08.5.1.75 0 .4.1.8 0 1.22-.05 0-.1 0-.15.04h.2c0 .5.1.9.1 1.3.1.4.1.8.1 1.1 0 .1-.1.1-.1.1 0 .1.1.1.2.1l.1 1c.1.5 0 1 0 1.5l.1 1.2c0 .2.1.4.1.6l.3 3.1h-.1l.1-.1-.1.1h-.2c0-.4-.2-.7-.3-1.1-.1-.2-.1-.4-.1-.6v-.6c-.1-.2 0-.5 0-.8 0-.1.1-.3.1-.5-.1-.2 0-.5 0-.7 0-.4-.1-.7-.1-1.1v-.8c-.1 0-.1-.2-.1-.3 0-.3-.1-.7-.2-1.1h-.1c.2-.1.1-.2 0-.3 0-.2-.2-.4-.3-.6v.2s-.1 0-.2-.1c-.1-.4-.3-.9-.6-1.2H46h.1c-.14-.2-.36-.4-.5-.6-.05-.1-.12-.2-.24-.2-.04-.1-.04-.2-.13-.3v-.2h-.05c-.07-.3-.2-.6-.3-.9l-.12.1c.04-.1.03-.2.02-.3h.05zm3.6 13.02c.1.02.17.1.27.1.1.27.05.56.07.84.03 2.5-.25 4.9-.5 7.3l-.06.1c-.1.8-.1 1.5-.3 2.3-.1 1.3-.4 2.5-.6 3.8 0 .1 0 .2-.1.2h-.7c0-.3.1-.6 0-.9-.1-.3-.1-.6-.2-1 0-.1 0-.2-.1-.2-.1-.4-.3-.9-.5-1.3-.1-.2-.2-.5-.4-.8H45l.1-.1c-.2-.2-.33-.4-.54-.6-.1-.5-.4-.9-.7-1.3-.15-.1-.34-.3-.5-.4-.24-.6-.67-1.1-1.1-1.6-.05-.1-.16-.1-.17-.2.2 0 .4 0 .6-.1.3-.1.6-.2.9-.4.1-.1.3-.1.5-.2.1-.1.2-.2.4-.1.1.2-.1.2-.1.4l.1-.1c.2 0 .4-.2.6-.4.3-.2.5-.6.8-.9l.5-.7c.1-.1.3-.1.3.1.3-.3.4-.7.6-1.1.1-.5.2-1 .4-1.5.1-.3.3-.4.6-.5v.1-.1zm1.7.5h.08c.3.6.4 1.23.6 1.8.1.25.3.44.4.67.2.35.5.63.7.95.3.2.6.5.9.7.5.4 1.1.9 1.4 1.5 0-.2-.1-.4.1-.5.2 0 .3.3.5.4.2.1.5.2.7.4l.6.3c.1.1-.1.2-.2.2-.9.8-2.1 1.4-2.8 2.4 0 0-.1.1-.2.1 0-.2.1-.3.1-.5-.1.2-.3.3-.4.5-.3.2-.5.6-.8.9-.1.2-.2.4-.4.6-.7.7-1.3 1.5-1.6 2.5-.1.2-.1.4-.1.6-.1 0-.2-.1-.3-.1-.2-.6 0-1.1 0-1.7.1-.2 0-.5.1-.7.1-1.2.3-2.3.4-3.4.1-.8.1-1.6.2-2.4.3-2 .4-3.9.5-5.8zM112.4 1303.5c-1.76.37-.58 2.53.87 2.12 2.27-.13.7-3.1-.88-2.13z"/>
</svg>
