<!-- https://openclipart.org/detail/235013/silhouette-penguin -->
<svg xmlns="http://www.w3.org/2000/svg" width="100" height="100">
  <path d="M37.218739.44258114c2.472156-.87388332 4.877181.3991752 7.188394.89475776 3.187631.936781 8.104382-1.00038132 10.297769.411361-.828443 1.5847603-3.198674 2.2931234-4.569044 3.5733444-.948346 1.3726342-2.872632 2.846899-2.981102 4.7762017-.101249 2.222507-.123451 4.492249 1.168838 6.396897 2.444804 3.410107 5.664054 6.204468 7.851877 9.815796 3.209269 4.831384 6.862557 9.745499 7.927706 15.521773.480834 2.665099.653927 5.448133.821077 8.187642-.501895 2.640278-.05811 5.693277-1.609677 7.955912-2.877245 1.243557-1.422244-3.038885-.7886-4.475684.120785-2.300698-.419498-4.650335-1.531704-6.644336-.466957-1.579192-1.432409-3.029647-2.503711-4.219768-2.874663 1.563006-.576785 5.534641-.988495 8.126372.286372 3.410867.365645 6.874213-.234688 10.223745-.306618 3.593801-2.434317 6.647242-4.659564 9.322922-.807678 2.303043-.0081 3.476656 2.482739 3.115301 1.870882-.559804 6.694389 3.045222 3.086748 3.553677-2.066238-.274568-2.6572 2.612773-4.617859 2.206564-2.208103-1.748394-3.747723-.277977-5.959997.504249-1.548754-1.402952.603666-3.45709.425325-5.194247.385788-2.245634-2.076297-2.222581-3.78135-2.222143-1.692273.104091-2.862729-.387486-4.435666-.662496-1.850858-.80165-4.056286-1.4359-6.020185-.66396-1.987596 1.16927-1.53176 2.940715-.01895 4.39038 2.584188 1.637498.884175 4.363856-1.554452 2.805122-2.177141 1.145694-4.487679 2.004315-6.388419-.204258-2.150732.314061-5.438227-1.212278-2.739648-2.984929 1.371618-.95382 3.695496-1.059632 3.967568-3.001607.35771-2.28338-1.372809-4.177552-2.112597-6.225216-1.304497-2.932307-2.519713-6.071603-2.160725-9.356745.249244-3.235928 1.56868-6.345624 2.374331-9.520546.33784-1.491182 1.57139-3.730487.462544-4.955289-1.554627-.622151-3.118848 2.306153-4.28043 3.488039-1.600165 2.177961-2.668446 4.840701-4.811219 6.559029-1.796867-1.217276.455911-4.758668.760165-6.955699 1.534174-5.880426 4.114249-11.476439 7.81586-16.296629 2.742874-3.713689 5.52295-7.712802 6.346656-12.333312.680837-3.598511-.500428-7.2676325.22754-10.8621474.428853-2.0143308 2.31345-3.5613749 4.184611-4.4458623.433024-.24646727.867421-.47370937 1.358338-.60421116z" stroke="#000" stroke-width=".03554388"/>
</svg>
