<!-- https://openclipart.org/detail/116629/rabbit-silhouette -->
<svg xmlns="http://www.w3.org/2000/svg" width="100px" height="100px">
  <path
     style="fill:#000000"
     d="m 56.473575,-0.10090596 c -1.813146,-0.0270534 -3.219861,0.82195241 -3.219861,2.55315306 0,2.1306518 -0.53881,11.1855509 0.260184,14.1152909 0.798994,2.929738 3.996547,7.215482 6.390844,10.123003 1.864229,2.263771 0.804957,7.719818 0.804957,10.383132 0,2.663315 -0.536459,4.797299 -1.601785,4.797299 -1.065325,0 -2.658685,1.064992 -3.724011,2.130281 -1.065326,1.065326 -2.132134,2.398743 -3.463698,1.333471 C 50.588547,44.269399 48.188787,43.206666 43.927483,42.407578 39.66618,41.608584 32.477916,42.403278 27.950188,44.001235 23.42246,45.599224 13.831192,54.389921 11.167879,58.3848 8.5045629,62.379865 8.2427675,74.627965 8.5090064,76.492378 8.7753379,78.356791 7.9705484,79.692244 6.6388542,78.094162 5.3071968,76.496173 4.2484435,77.297334 4.2484435,77.297334 c 0,0 -1.3334716,2.660538 -1.3334716,3.992289 0,1.331642 0.5285155,2.658867 0.5285155,2.658867 0,0 -2.1302813,1.60162 -2.1302813,2.667018 0,1.065327 2.1321327,2.930854 3.4636976,4.528843 1.3316573,1.597989 5.8600323,4.795263 7.7244463,4.528835 1.864413,-0.266331 5.327556,-0.0024 6.659306,0.796826 1.331657,0.798996 4.526247,1.86405 8.521127,2.130285 3.995065,0.266331 15.177839,1.065158 18.107577,1.065158 2.929739,0 3.73401,-0.530328 5.065575,-1.862001 1.331658,-1.331642 -1.071121,-2.932894 -1.870153,-4.797302 -0.798994,-1.864233 2.666833,-1.327322 3.732158,-1.593653 1.065327,-0.266332 3.998027,-2.130285 5.862441,-2.130285 1.864413,0 1.595304,1.861818 3.992287,2.927143 2.397076,1.06531 5.857811,4.524772 8.521125,5.057435 2.663315,0.532663 8.789217,0.0024 10.919873,-0.796835 2.130651,-0.798995 1.864224,-2.660532 0,-3.992285 -1.864417,-1.331641 -6.388812,-3.733824 -7.187714,-5.065577 -0.798994,-1.331657 -1.063345,-2.928998 0.268313,-4.26056 1.331657,-1.331657 2.658502,-0.796658 4.789153,-1.862008 2.130648,-1.065326 2.927147,-4.266486 2.927147,-6.130713 0,-1.864413 0.253516,-3.890643 1.065157,-5.057428 0.680115,-0.977808 0.944279,-4.097635 0.982193,-6.228287 0.04048,-2.275251 -0.980025,-2.823281 -1.77902,-4.154846 -0.798978,-1.331657 0.796644,-3.195421 1.862009,-3.195421 1.065326,0 5.860029,-0.80279 7.724445,-1.601784 1.864224,-0.798995 3.733824,-4.264451 5.065569,-5.862441 1.331653,-1.597988 0.26254,-5.057242 -1.601781,-6.122568 -1.86432,-1.065327 -1.865712,-3.998027 -3.4637,-5.862441 -1.59799,-1.864413 -3.459438,-5.856144 -5.057426,-7.187709 -1.59799,-1.331657 -5.327558,-2.398557 -6.659305,-2.398557 -1.331657,0 -2.130281,1.67e-4 -2.130281,-1.065159 0,-1.065326 -0.268313,-2.392078 -0.268313,-4.789153 0,-2.397075 -3.007314,-12.6759713 -6.919434,-18.9125899 -0.816121,-1.3010713 -2.139909,-1.0007657 -3.732158,-0.5366436 -1.054236,0.3073227 -1.593657,0.8064188 -1.593657,4.2687093 0,3.4624015 -2.130096,-0.0058 -3.195422,-1.8701523 -1.065326,-1.8643518 -2.936958,-3.99617538 -5.33385,-4.52883831 -0.44944,-0.0998711 -0.882532,-0.14824397 -1.300942,-0.15448522 z"/>
</svg>
