<!-- https://openclipart.org/detail/232715/snail -->
<svg xmlns="http://www.w3.org/2000/svg" width="100" height="100">
  <path d="M27.2803 73.9334c-3.7788-1.511-7.7747.861-11.5826-.878-4.4092-.8348-8.9336-.8205-13.3002-1.932-5.7365.0798 1.0344-3.1172 2.8117-4.1663 2.2847-2.13 9.187-3.783 5.309-7.395-1.7176-3.372-1.3686-7.354-1.641-11.025.9843-6.628 4.3697-13.29 10.532-16.464 3.626-2.613 8.0558-3.452 12.444-3.384 6.2512-.116 12.121 3.186 16.5634 7.354 2.1915 2.925 4.2228 6.006 6.189 9.053 1.135 1.331 2.9144 4.872 4.8905 4.102 5.221-1.469 11.196.204 16.073-2.686 2.165-3.054 4.928-5.74 6.7-9.053 1.571-3.715 2.718-7.632 3.797-11.494.782-3.102 4.073.18 1.782 1.993-1.417 3.978-2.779 8.084-3.255 12.278 1.946.923 3.438 1.645 5.234-.768 2.6-2.545 5.293-5.064 7.357-8.075 2.404-2.426 4.2 2.243 1.005 2.587-3.427 2.899-6.439 6.434-8.661 10.34-1.286 2.618.309 2.14 1.991 1.944-1.521 2.179-4.216 4.916-6.197 7.377-3.013 2.089-6.206 3.951-8.719 6.691-3.356 2.843-6.369 6.749-10.979 7.396-3.952 1.098-8.381.964-11.775 3.549-4.51 1.922-9.669.619-14.235 2.269-4.063.532-8.253.87-12.33.39zm3.7264-1.3664c.5975-4.031-3.5677 1.9342 0 0zm-3.6826-.8813c-1.384-2.8437-2.244 2.0238.293.8432l-.293-.844zm11.913.4957c2.077-1.2788 7.557.9516 5.621-2.1264-.084-2.689-2.916-.573-.914.9363-2.535 1.4618-2.988-4.0594-3.883-.262-1.818.8792-2.161.6352-2.358-.9483-1.268-.0292-.24 2.8435-2.511 2.557 1.134.7456 2.816.054 4.047-.1566zm-18.432-.6227c-1.796-.768.618 1.8624 0 0zm2.74.498c-1.006-1.5056-.88 1.4548 0 0zm-5.275-.7055c-.694-1.4414-.834 1.6422 0 0zm16.09.43c1.425-2.615-2.908-.0556 0 0zm-18.661-.347c-.065-.9136-.747.839 0 0zm32.506-.2492c-.758-.7457-1.199.9526 0 0zm2.572-.3574c1.787.3038 5.695-2.6942 1.94-1.258-1.748.8145-1.385-3.0624-2.401-.1227-1.266-.666-2.336-1.419-1.603 1.005-.34 1.46 1.4.237 2.064.375zm-3.224-.8257c-.725-3.757-2.759 1.175.032.571l-.031-.572zm-24.505-.053c-2.537-1.599-7.051-2.153-8.075-4.448-2.003-2.203-5.995 1.396-6.513 2.29-2.375-2.027-1.061 1.675-2.425 2.118 5.598-.588 11.216.203 16.815.184l.199-.146zm-10.4-1.816c1.292-1.497 1.053 1.355 0 0zm-1.419-.166c.02-1.282 1.155.556 0 0zm1.034-1.673c-.778-1.52 2.876.257 0 0zm49.145 1.17c2.728-.641 8.294-1.209 8.802-3.64-2.099 1.837-5.56 1.631-6.66.01.1 3.412-5.194 2.787-7.123 3.63 2.745-1.923-.515-2.178-1.457-.297.052 3.261 3.325.287 5.291.514l.589-.115.56-.103zm-19.553.604c4.284-.441 8.807-.383 12.636-2.672 3.35-1.327 7.037-1.548 10.256-3.258 4.053-1.024 7.608-3.211 10.946-5.635 2.558-1.298 5.206-2.203 7.645-3.668-.227-1.147-2.164-3.983 1.345-3.453 3.241 1.031 4.595-4.633 1.387-3.577 3.394-2.597-2.344-2.129-3.389-1.884 2.901-1.459-1.205-3.77-1.094-.439-.936 1.758-1.783 2.601-3.53 2.457-1.751 1.776 6.372.083 2.287 1.586-.371 1.981-3.255 1.696-4.176 2.882-1.397-1.973-2.258-1.245-2.264.645-2.646 1.72-.025-2.655-2.997-1.262-2.1313-.316-7.213 1.122-3.2503 2.236.285 1.376 2.5574-2.414 2.1646.303-2.3205.203-6.82.997-6.0602 4.287 4.223-1.943-3.187 3.525-.9322-.493-.285-2.443-1.141 2.755-2.905.926-3.729 1.487-6.161 4.79-9.686 6.517-3.549 1.919-7.605 2.388-11.212 4.136-1.946 1.423 2.3917.279 2.832.363zm18.433-5.851c2.741-1.159.13.982 0 0zm-3.549-.81c1.292-1.497 1.053 1.356 0 0zm3.674-2.935c.731-.833 1.155.473 0 0zm8.469-2.234c1.167-1.095.482 1.011 0 0zm1.744-2.461c.937-2.822 3.152 1.079 0 0zm4.65-.944c-.669-3.089 4.404.433 0 0zm3.358-1.316c.962-1.035.226.904 0 0zM81.083 49c.5063-.5465.564.8337 0 0zm2.2418-2.57c1.305-3.453 1.4465 2.3866 0 0zM53.3773 67.993c-.6836-1.0637-.83 1.2578 0 0zm-26.097-1.032c1.656-2.2637 3.579-1.708 5.3898-1.3695 2.488.1218 3.785-2.548.797-2.9403-2.828 1.8925-6.301.47-9.054 1.1113-.029 1.1264 1.852 3.617 2.868 3.1985zm32.3815-1.6443c-1.0343-2.0997-.5176 2.3814 0 0zm-37.5724-.608c3.3986-.352-2.2778-4.8967 1.9077-3.1647 3.54 1.637 8.191.9936 10.753-2.0282 3.429-2.2936 4.725-7.0223 3.618-10.9316-.996-4.9546-6.479-8.2207-11.347-7.293-3.62.4982-7.105 3.7726-7.559 7.4376-.606 3.9243 1.726 8.787 6.058 9.086 4.509 1.5317 9.811-2.3044 9.433-7.1538.287-4.3813-4.11-7.1465-8.12-6.3583-4.154.5203-6.518 7.4438-1.963 9.2848 4.161 3.382 9.564-2.4845 5.411-6.1433-3.753-3.9815-7.822 5.164-2.281 4.3203 3.175-.5087.621-5.2732-1.038-2.3593 2.77 2.3986-2.963-.0228.166-1.5934 4.984-1.3375 3.008 7.381-1.144 4.2925-4.379-2.6873 1.133-8.899 4.779-5.5146 2.581 1.8376 3.095 8.294-.641 8.1323-3.202 3.2837-8.551-1.1332-8.553-5.105.322-3.715 3.676-7.8447 7.775-6.3718 1.992.7858 3.593-1.5978 4.145 1.561 1.521 1.9932 4.36 6.3 3.023 7.9463-3.073.774 1.669 5.5804-2.807 4.139-2.683.6697 1.618 3.2102-1.988 3.0654-2.661-2.357-5.239 3.714-6.654-.956-.953-.331-3.318.838-3.486-.158.533-3.047-4.086-3.476-3.203-7.009-1.149-3.915 1.973-7.363 4.404-10.031.858-3.317 7.525-.11 6.886-3.684 2.0506 3.332 7.119 3.257 8.713 7.194 2.1678 3.923 1.85 8.65.256 12.708 3.0275 2.907 3.985-2.075 4.9476-4.029 2.123-1.708-1.922-2.576 1.109-3.975-2.051-.521.476-3.887-3.118-3.844.012-2.796-1.127-7.656-4.6885-5.898.5375-1.992-1.4437-3.314-2.137-1.39-2.4294-3.399-7.093-2-10.3953-.627-4.682 1.494-7.714 6.028-8.119 10.805-.5404 3.85.957 7.996 3.97 10.492 2.3947 1.442-1.871 2.109.173 4.346.419 1.52.5193 1.355 1.7214.804zm22.8552.0914c3.0445-2.279 7.152-3.365 9.3948-6.672.8938-1.685 2.0594-3.244-.7-3.482-.839-4.45-3.066 3.1-5.6054 3.268-2.069.472-6.8 7.141-3.09 6.888zm22.1485-1.57c-.546-1.665-.963 2.142 0 0zm-49.278-.233c2.69-3.346-2.661-5.833-2.613-7.869.71-2.282-1.126-3.409-2.492-4.076 2.619-.728 3.21-3.593.498-4.576 2.172.016 4.745-3.691 1.115-3.441-1.198-2.164 1.16-1.381 2.466-1.312 2.313.505 3.562-3.892.352-3.841.695-2.34 4.013 2.804 5.637-.393 2.65-3.142 7.312-1.746 10.996-1.993 6.25.654 10.655 6.154 12.388 11.813 1.312 2.891-.679 8.154 1.111 9.754 3.397-2.235 4.135-6.054 5.186-9.625-.857-1.6404-4.58 3.7176-2.833-.563 1.285-1.8192 1.96-5.3842-.857-2.56-.659-.7256 1.567-6.9885-1.688-4.011-.504-3.003-1.912-6.0804-5.213-7.136.177 2.687-1.951 3.045-2.25.2385-.268-2.104-1.615-1.504-1.684.14-1.7-.6024-4.511-5.5766-5.498-2.299 2.948 5.6903-4.614-3.836-4.069.341.693 2.058-4.343-.742-5.757.896-2.394 1.4474-3.925 3.1253-6.507 4.382-2.143 2.889-3.347 6.292-4.771 9.548-.304 3.8657-.958 8.4373 1.695 11.529-.819 2.39 3.435 5.486 4.794 5.058zm5.289-27.928c-4.177-1.099 2.386-1.809.772.502l-.41-.146-.362-.355zm46.273 27.634c-1.205-1.685-.561 2.111 0 0zm-30.487-.461c1.926-1.093 2.051-.934.597-2.61-2.323-2.11-5.664 3.608-1.215 3.269l.307-.217.312-.44zm34.862-.701c2.556-.973-1.852-3.449-.204-.794-.514 1.527-2.694 2.871.205.794zm-1.967-.425c-1.373-1.366-.157 2.23 0 0zm4.191-1.875c-.332-4.513-1.727 2.192 0 0zm1.56-2.396c-1.241-.312-.096 1.467 0 0zm8.12-5.202c-.274-1.891-1.911 1.401 0 0z"/>
</svg>
