<!-- https://openclipart.org/detail/174646/trout-silhouette -->
<svg xmlns="http://www.w3.org/2000/svg" width="100" height="100">
  <path d="M50.55454707 32.0002913c-1.31304246.65186998.3646333 1.91686568-1.3746189 1.56666253-.89218347 1.45033193-3.5363755 3.32177798-2.5446772 4.457978-1.48218003-.56189096-3.9102167 2.38952564-4.2168529 3.5327609 2.00825048.73186447 5.6433301 1.09089693 1.82665323 1.49628574-5.59119317.91476824-11.20331284 1.7044698-16.80577213 2.5282917-1.9614834-.1454441-4.7632636-2.30409445-6.68140744-.56289447-.82273334 1.51806987 4.1207492 1.47321215.8701077 1.71169528-3.45347986.38065152-7.1981276-.06161046-9.93982372-2.3607441-3.049012-1.88327074-6.4242407-3.45870524-10.0468084-3.6906256-.8645081.68501802-.4826716 2.22704908-.5177388 3.3072905-.1432204 1.59517697.7405187 1.89856013.0888984 3.07292472.1937647 1.0220755 1.2449449 2.21042548.9918533 2.83279238.9107505 1.23281336-.6148195 2.62049983-.3484601 3.8012993 1.2682358.5195801-1.5817075.95238222-1.0472575 2.4528653.1216581.9227704-1.194354 2.8820515-.443445 3.02379595 4.2058024.160542 8.1886146-1.25954505 12.0983941-2.61797626 1.1111434-.36387926 2.6249964-.7238875 3.3896766-1.03000084 3.0007444-.45642 6.21034-.35833133 9.0467514.82492555-2.8163458-.536462-4.28785456 1.4255581-3.24818912 4.30923552.4897781 2.1114171.98834955 6.15832924 4.00123488 4.21133395 3.4386657-1.36055855 6.560565-3.34750807 9.8025059-5.08721446 3.2243772-.6007479 6.52729276.2488936 9.76023407.5137953.76842394.2638182 3.35038188.1563793 2.9396316.6389287-.87124033.8707206-.37008042 2.2804205-.8884063 3.039806.0022237 1.2626229-1.2788768 3.067521.1596109 3.9608289 1.3409975-.0937282 2.3472532-1.5269653 3.3715222-2.354073.80901063-.42758997 1.9452163-2.77284436 2.43427626-1.02491216.9773633.9881826 1.53530324-.95186253 2.2277937-1.42784104.50766342-1.4216896 1.3097749-1.8537736 2.79542782-1.3824176 5.1133716.08180395 10.2201301-.446465 15.2485512-1.3539353.1671268 1.4688951-.571022 3.4728166.80515095 4.49029478 1.68231404-.62707824 2.5775061-2.4949254 3.729376-3.80112163.7677247-.97417892 1.2606632-2.4082476 2.73182993-2.3371256 2.87023187-.60705734 5.66030204-1.47243415 8.49564255-1.8843706 3.5020379-1.12672558 7.5766399-1.236775 10.40430767-3.8321249.6990809-1.58963285-1.30350637-.72659-2.07829904-.95273566-.1781855-.4911394 2.3181441-.6432546 2.1432526-1.8387217-.7978184-2.07994636-3.26616396-2.8223372-5.11219616-3.7497963-2.5888313-1.0534146-5.2987839-1.6369952-7.9394539-2.5201169-4.2253496-.74869977-8.3526225-2.0298626-12.64564136-2.4272505-4.36486276-.6127785-8.79623254-.36868826-13.16835037-.77364556-2.4102294-2.561966-5.40337418-5.4852669-8.4176334-7.7346349-.609065-.37334827-1.19484535-.8478643-1.8976511-1.029512z"/>
</svg>
